<?xml version="1.0" encoding="utf-8"?>
<!-- Generator: Adobe Illustrator 23.0.1, SVG Export Plug-In . SVG Version: 6.00 Build 0)  -->
<svg version="1.1" id="Layer_1" xmlns="http://www.w3.org/2000/svg" xmlns:xlink="http://www.w3.org/1999/xlink" x="0px" y="0px"
	 viewBox="0 0 214 214" style="enable-background:new 0 0 214 214;" xml:space="preserve">
<style type="text/css">
	.st0{fill-rule:evenodd;clip-rule:evenodd;fill:url(#Oval_1_);}
	.st1{fill-rule:evenodd;clip-rule:evenodd;fill:#FFFFFF;}
</style>
<title>Logo</title>
<desc>Created with Sketch.</desc>
<g id="Logo">
	<g>
		
			<linearGradient id="Oval_1_" gradientUnits="userSpaceOnUse" x1="-183.8911" y1="463.4701" x2="-187.0767" y2="460.393" gradientTransform="matrix(50 0 0 -50 9380.3613 23204.3809)">
			<stop  offset="0" style="stop-color:#FD9292"/>
			<stop  offset="1" style="stop-color:#EB2A2A"/>
		</linearGradient>
		<circle id="Oval" class="st0" cx="107" cy="107" r="107"/>
		<path id="R" class="st1" d="M145.5,139.3c-2,2.2-4,3.8-6.3,4.7c-2.2,1-4.9,1.5-8,1.5c-4.1,0-7.4-0.9-9.8-2.6c-2.4-1.7-4-4.7-4.7-9
			l-1.9-10.6c-0.6-3.4-1.3-6.2-2-8.3c-0.7-2.1-1.7-3.8-2.9-5c-1.3-1.2-3-1.8-5.1-1.8h-7v24.5c0,2.7,0.2,4.6,0.6,5.8s1.1,2,2.2,2.5
			c1.1,0.5,2.8,0.7,5.2,0.8v2.1c-3.8-0.2-9.2-0.3-16.2-0.3c-7.7,0-13.3,0.1-16.9,0.3v-2.1c2.4-0.1,4.1-0.4,5.2-0.8
			c1.1-0.5,1.8-1.3,2.2-2.5c0.4-1.2,0.6-3.2,0.6-5.8V79.8c0-2.7-0.2-4.6-0.6-5.8c-0.4-1.2-1.1-2-2.2-2.5c-1.1-0.5-2.8-0.7-5.2-0.8
			v-2.1c3.6,0.2,9.1,0.3,16.3,0.3c2.9,0,6,0,9.5-0.1c3.5-0.1,5.9-0.1,7.3-0.1c9.9,0,17.3,1.6,22.3,4.8c5,3.2,7.5,7.8,7.5,13.7
			c0,3.2-0.8,6.2-2.3,9c-1.5,2.8-4.1,5.3-7.7,7.4c-3.6,2.1-8.4,3.5-14.3,4.2h0.1c4.3,0.4,7.9,1.1,10.7,2.2c2.8,1.1,5,2.6,6.5,4.5
			c1.6,1.9,2.7,4.4,3.3,7.4l2.5,11c0.6,2.9,1.3,4.9,2,6c0.8,1.1,1.8,1.7,3.2,1.7c0.8,0,1.6-0.2,2.2-0.6c0.6-0.4,1.3-1,2.1-1.8
			L145.5,139.3z M102.5,106c4,0,7.2-0.8,9.4-2.3s3.8-3.6,4.7-6.1c0.9-2.6,1.3-5.7,1.3-9.3c0-5.8-1-10.2-3.1-13.2
			c-2.1-3-5.5-4.5-10.2-4.5c-1.9,0-3.3,0.3-4.3,0.8c-0.9,0.5-1.6,1.4-1.9,2.7s-0.5,3.2-0.5,5.8V106H102.5z"/>
	</g>
</g>
</svg>
