<svg xmlns="http://www.w3.org/2000/svg" viewBox="0 0 8.947 9.451">
  <defs>
    <style>
      .cls-1 {
        fill: #fff;
        fill-rule: evenodd;
      }
    </style>
  </defs>
  <path id="R" class="cls-1" d="M81.647,77.289a2.1,2.1,0,0,1-.774.578,2.38,2.38,0,0,1-.983.184,2.058,2.058,0,0,1-1.2-.32,1.6,1.6,0,0,1-.578-1.106l-.234-1.3a7.354,7.354,0,0,0-.246-1.02,1.561,1.561,0,0,0-.356-.615.888.888,0,0,0-.627-.221h-.86v3.011a2.448,2.448,0,0,0,.074.713.483.483,0,0,0,.27.307,1.868,1.868,0,0,0,.639.1v.258q-.7-.037-1.991-.037c-.946,0-1.635.012-2.077.037V77.6a2.235,2.235,0,0,0,.639-.1.483.483,0,0,0,.27-.307,2.506,2.506,0,0,0,.074-.713v-6.5a2.448,2.448,0,0,0-.074-.713.483.483,0,0,0-.27-.307,1.869,1.869,0,0,0-.639-.1V68.6c.442.025,1.118.037,2,.037.356,0,.737,0,1.168-.012s.725-.012.9-.012a5.13,5.13,0,0,1,2.741.59,1.89,1.89,0,0,1,.922,1.684,2.313,2.313,0,0,1-.283,1.106,2.417,2.417,0,0,1-.946.909,4.578,4.578,0,0,1-1.757.516h.012a4.931,4.931,0,0,1,1.315.27,1.858,1.858,0,0,1,.8.553,2,2,0,0,1,.406.909l.307,1.352a2.387,2.387,0,0,0,.246.737.458.458,0,0,0,.393.209.5.5,0,0,0,.27-.074,1.786,1.786,0,0,0,.258-.221ZM76.362,73.2a2.056,2.056,0,0,0,1.155-.283,1.519,1.519,0,0,0,.578-.75,3.515,3.515,0,0,0,.16-1.143,2.826,2.826,0,0,0-.381-1.622,1.422,1.422,0,0,0-1.254-.553,1.188,1.188,0,0,0-.528.1.489.489,0,0,0-.234.332,3.3,3.3,0,0,0-.061.713V73.2Z" transform="translate(-72.7 -68.6)"/>
</svg>
