<?xml version="1.0" encoding="UTF-8"?>
<svg width="14px" height="14px" viewBox="0 0 14 14" version="1.1" xmlns="http://www.w3.org/2000/svg" xmlns:xlink="http://www.w3.org/1999/xlink">
    <!-- Generator: Sketch 52.3 (67297) - http://www.bohemiancoding.com/sketch -->
    <title>Shape</title>
    <desc>Created with Sketch.</desc>
    <g id="Page-1" stroke="none" stroke-width="1" fill="none" fill-rule="evenodd">
        <g id="History" transform="translate(-927.000000, -188.000000)" fill="#AFAFAF" fill-rule="nonzero">
            <g id="Stat" transform="translate(146.000000, 169.000000)">
                <g id="Head">
                    <g id="Search-Form" transform="translate(634.000000, 10.000000)">
                        <path d="M157.005718,17.8050314 L156.373356,17.8050314 L156.149228,17.5889079 C156.933676,16.6763865 157.405946,15.4917095 157.405946,14.2029731 C157.405946,11.329331 155.076615,9 152.202973,9 C149.329331,9 147,11.329331 147,14.2029731 C147,17.0766152 149.329331,19.4059463 152.202973,19.4059463 C153.49171,19.4059463 154.676387,18.9336764 155.588908,18.1492281 L155.805031,18.3733562 L155.805031,19.0057176 L159.807318,23 L161,21.8073185 L157.005718,17.8050314 Z M152.202973,17.8050314 C150.209834,17.8050314 148.600915,16.1961121 148.600915,14.2029731 C148.600915,12.2098342 150.209834,10.6009148 152.202973,10.6009148 C154.196112,10.6009148 155.805031,12.2098342 155.805031,14.2029731 C155.805031,16.1961121 154.196112,17.8050314 152.202973,17.8050314 Z" id="Shape"></path>
                    </g>
                </g>
            </g>
        </g>
    </g>
</svg>