<svg xmlns="http://www.w3.org/2000/svg" viewBox="0 0 18.934 20">
  <defs>
    <style>
      .cls-1 {
        fill: #d21616;
        fill-rule: evenodd;
      }
    </style>
  </defs>
  <path id="R" class="cls-1" d="M91.634,86.988A4.433,4.433,0,0,1,90,88.21a5.035,5.035,0,0,1-2.081.39,4.355,4.355,0,0,1-2.549-.676,3.391,3.391,0,0,1-1.222-2.341l-.494-2.757a15.561,15.561,0,0,0-.52-2.159,3.3,3.3,0,0,0-.754-1.3,1.878,1.878,0,0,0-1.326-.468H79.228v6.372a5.181,5.181,0,0,0,.156,1.508,1.021,1.021,0,0,0,.572.65,3.954,3.954,0,0,0,1.352.208v.546q-1.482-.078-4.213-.078c-2,0-3.459.026-4.4.078v-.546a4.73,4.73,0,0,0,1.352-.208,1.021,1.021,0,0,0,.572-.65,5.3,5.3,0,0,0,.156-1.508V71.513A5.18,5.18,0,0,0,74.625,70a1.021,1.021,0,0,0-.572-.65,3.954,3.954,0,0,0-1.352-.208V68.6c.936.052,2.367.078,4.239.078.754,0,1.56,0,2.471-.026s1.534-.026,1.9-.026a10.856,10.856,0,0,1,5.8,1.248,4,4,0,0,1,1.951,3.563,4.895,4.895,0,0,1-.6,2.341,5.115,5.115,0,0,1-2,1.925A9.688,9.688,0,0,1,82.739,78.8h.026a10.436,10.436,0,0,1,2.783.572,3.932,3.932,0,0,1,1.691,1.17,4.235,4.235,0,0,1,.858,1.925l.65,2.861a5.051,5.051,0,0,0,.52,1.56.97.97,0,0,0,.832.442,1.048,1.048,0,0,0,.572-.156,3.782,3.782,0,0,0,.546-.468ZM80.45,78.327a4.351,4.351,0,0,0,2.445-.6,3.214,3.214,0,0,0,1.222-1.586,7.439,7.439,0,0,0,.338-2.419,5.98,5.98,0,0,0-.806-3.433A3.01,3.01,0,0,0,81,69.12a2.514,2.514,0,0,0-1.118.208,1.036,1.036,0,0,0-.494.7,6.986,6.986,0,0,0-.13,1.508v6.788Z" transform="translate(-72.7 -68.6)"/>
</svg>
