<?xml version="1.0" encoding="UTF-8"?>
<svg width="11px" height="11px" viewBox="0 0 11 11" version="1.1" xmlns="http://www.w3.org/2000/svg" xmlns:xlink="http://www.w3.org/1999/xlink">
    <!-- Generator: Sketch 52.3 (67297) - http://www.bohemiancoding.com/sketch -->
    <title>Shape</title>
    <desc>Created with Sketch.</desc>
    <g id="Page-1" stroke="none" stroke-width="1" fill="none" fill-rule="evenodd">
        <g id="Buy-Sell" transform="translate(-737.000000, -271.000000)" fill="#AFAFAF" fill-rule="nonzero">
            <g transform="translate(240.000000, 149.000000)" id="Search">
                <g transform="translate(20.000000, 107.000000)">
                    <path d="M484.861635,21.918239 L484.36478,21.918239 L484.188679,21.7484277 C484.805031,21.0314465 485.176101,20.1006289 485.176101,19.0880503 C485.176101,16.8301887 483.345912,15 481.08805,15 C478.830189,15 477,16.8301887 477,19.0880503 C477,21.3459119 478.830189,23.1761006 481.08805,23.1761006 C482.100629,23.1761006 483.031447,22.8050314 483.748428,22.1886792 L483.918239,22.3647799 L483.918239,22.8616352 L487.062893,26 L488,25.0628931 L484.861635,21.918239 Z M481.08805,21.918239 C479.522013,21.918239 478.257862,20.6540881 478.257862,19.0880503 C478.257862,17.5220126 479.522013,16.2578616 481.08805,16.2578616 C482.654088,16.2578616 483.918239,17.5220126 483.918239,19.0880503 C483.918239,20.6540881 482.654088,21.918239 481.08805,21.918239 Z" id="Shape"></path>
                </g>
            </g>
        </g>
    </g>
</svg>