<?xml version="1.0" encoding="UTF-8"?>
<svg width="40px" height="48px" viewBox="0 0 40 48" version="1.1" xmlns="http://www.w3.org/2000/svg" xmlns:xlink="http://www.w3.org/1999/xlink">
    <!-- Generator: Sketch 52.3 (67297) - http://www.bohemiancoding.com/sketch -->
    <title>shield-enable-2</title>
    <desc>Created with Sketch.</desc>
    <g id="Page-1" stroke="none" stroke-width="1" fill="none" fill-rule="evenodd">
        <g id="Home" transform="translate(-1073.000000, -2598.000000)" fill="#FFFFFF">
            <g id="Details-Block" transform="translate(0.000000, 2181.000000)">
                <g id="Details" transform="translate(147.000000, 381.000000)">
                    <g id="Detail-3" transform="translate(784.000000, 0.000000)">
                        <g id="shield-enable-2" transform="translate(135.000000, 33.000000)">
                            <path d="M27,3.24 L43.8745182,10.7397859 C45.4345912,11.4331516 46.44,12.9802365 46.44,14.6874517 L46.44,25.597921 C46.44,36.7546772 39.3008519,46.659716 28.7166237,50.1877921 L27,50.76 L25.2833763,50.1877921 C14.6991481,46.659716 7.56,36.7546772 7.56,25.597921 L7.56,14.6874517 C7.56,12.9802365 8.56540881,11.4331516 10.1254818,10.7397859 L27,3.24 Z M24.8363525,28.2295379 C23.9987565,28.9241097 22.8100229,28.9621368 21.9314851,28.3224633 L19.1465921,26.2947505 C18.3951098,25.7475875 17.3664227,25.8349249 16.7137715,26.5013014 C16.0730617,27.1554854 16.0257895,28.2002667 16.6046981,28.9119789 L21.1181553,34.4608393 C21.1987067,34.5598695 21.2849229,34.6539497 21.3763525,34.7425873 C22.6572545,35.9843742 24.6815638,35.9308281 25.8977738,34.6229886 L37.3489827,22.3090436 C37.9616779,21.6501879 37.9485194,20.6128174 37.3193181,19.970384 C36.6767779,19.3143312 35.652537,19.260277 34.9471749,19.8451947 L24.8363525,28.2295379 Z" id="Combined-Shape"></path>
                        </g>
                    </g>
                </g>
            </g>
        </g>
    </g>
</svg>