<?xml version="1.0" encoding="UTF-8"?>
<svg width="39px" height="39px" viewBox="0 0 39 39" version="1.1" xmlns="http://www.w3.org/2000/svg" xmlns:xlink="http://www.w3.org/1999/xlink">
    <!-- Generator: Sketch 52.3 (67297) - http://www.bohemiancoding.com/sketch -->
    <title>49</title>
    <desc>Created with Sketch.</desc>
    <g id="Page-1" stroke="none" stroke-width="1" fill="none" fill-rule="evenodd">
        <g id="Home" transform="translate(-186.000000, -1354.000000)">
            <g id="Feature-Block" transform="translate(0.000000, 759.000000)">
                <g id="Feature" transform="translate(145.000000, 554.000000)">
                    <g id="Feature-1">
                        <g id="49" transform="translate(42.000000, 42.000000)">
                            <polyline id="Axis" stroke="#FFFFFF" stroke-width="2" stroke-linecap="round" stroke-linejoin="round" points="0 0 2.73480143e-15 37 37 37"></polyline>
                            <path d="M6,34 L6,19.0001062 C6,17.895478 6.89826062,17 7.99791312,17 L10.0020869,17 C11.1055038,17 12,17.8900584 12,19.0001062 L12,34 L6,34 Z" id="Bar-1" fill="#FFFFFF"></path>
                            <path d="M16,34 L16,4.99821383 C16,3.8946308 16.8982606,3 17.9979131,3 L20.0020869,3 C21.1055038,3 22,3.89433765 22,4.99821383 L22,34 L16,34 Z" id="Bar-2" fill="#FFFFFF"></path>
                            <path d="M26,34 L26,11.0035949 C26,9.89703997 26.8982606,9 27.9979131,9 L30.0020869,9 C31.1055038,9 32,9.88976324 32,11.0035949 L32,34 L26,34 Z" id="Bar-3" fill="#FFFFFF"></path>
                        </g>
                    </g>
                </g>
            </g>
        </g>
    </g>
</svg>