<?xml version="1.0" encoding="UTF-8"?>
<svg width="35px" height="50px" viewBox="0 0 35 50" version="1.1" xmlns="http://www.w3.org/2000/svg" xmlns:xlink="http://www.w3.org/1999/xlink">
    <!-- Generator: Sketch 52.3 (67297) - http://www.bohemiancoding.com/sketch -->
    <title>round lock opened</title>
    <desc>Created with Sketch.</desc>
    <g id="Page-1" stroke="none" stroke-width="1" fill="none" fill-rule="evenodd">
        <g id="Home" transform="translate(-291.000000, -2597.000000)">
            <g id="Details-Block" transform="translate(0.000000, 2181.000000)">
                <g id="Details" transform="translate(147.000000, 381.000000)">
                    <g id="Detail-1">
                        <g id="round-lock-opened" transform="translate(147.000000, 38.000000)">
                            <ellipse id="Body" stroke="#FFFFFF" stroke-width="4.20000029" cx="14.5" cy="29.3333333" rx="14.5" ry="14.6666667"></ellipse>
                            <path d="M16.5714286,30.8679603 L16.5714286,33.547619 C16.5714286,34.6916375 15.6440184,35.6190476 14.5,35.6190476 C13.3559816,35.6190476 12.4285714,34.6916375 12.4285714,33.547619 L12.4285714,30.8679603 C11.1902686,30.1434073 10.3571429,28.789163 10.3571429,27.2380952 C10.3571429,24.9237591 12.2119632,23.047619 14.5,23.047619 C16.7880368,23.047619 18.6428571,24.9237591 18.6428571,27.2380952 C18.6428571,28.789163 17.8097314,30.1434073 16.5714286,30.8679603 Z" id="Keyhole" fill="#FFFFFF"></path>
                            <path d="M22.7857143,8.38095238 C22.7857143,3.75228019 19.0760736,0 14.5,0 C9.92392636,0 6.21428571,3.75228019 6.21428571,8.38095238 L6.21428571,16.7619048" id="Lock" stroke="#FFFFFF" stroke-width="4.20000029" stroke-linecap="round"></path>
                        </g>
                    </g>
                </g>
            </g>
        </g>
    </g>
</svg>