<svg xmlns="http://www.w3.org/2000/svg" width="12.63" height="12" viewBox="0 0 12.63 12">
  <g id="favourites-filled-star-symbol" transform="translate(0 -3.162)">
    <path id="Path_15" data-name="Path 15" d="M12.081,7.253,8.6,6.924a.6.6,0,0,1-.5-.369L6.859,3.536a.6.6,0,0,0-1.106,0L4.516,6.556a.589.589,0,0,1-.5.369L.54,7.253A.6.6,0,0,0,.2,8.3l2.621,2.3a.6.6,0,0,1,.189.588l-.787,3.229a.6.6,0,0,0,.887.658l2.9-1.7a.6.6,0,0,1,.608,0l2.9,1.7a.6.6,0,0,0,.887-.658L9.629,11.19a.6.6,0,0,1,.189-.588L12.44,8.3A.609.609,0,0,0,12.081,7.253Z" transform="translate(0)" fill="#0c0b0b"/>
  </g>
</svg>
