<svg id="Group_564" data-name="Group 564" xmlns="http://www.w3.org/2000/svg" viewBox="0 0 9.17 12.226">
  <defs>
    <style>
      .cls-1 {
        fill: #00b121;
      }
    </style>
  </defs>
  <path id="Path_71" data-name="Path 71" class="cls-1" d="M72.915,4.585h-.764V3.566a3.566,3.566,0,1,0-7.132,0V4.585h-.764A.255.255,0,0,0,64,4.84v6.368a1.02,1.02,0,0,0,1.019,1.019h7.132a1.02,1.02,0,0,0,1.019-1.019V4.84A.255.255,0,0,0,72.915,4.585ZM69.347,9.906a.255.255,0,0,1-.253.283H68.075a.255.255,0,0,1-.253-.283l.161-1.445a1.008,1.008,0,0,1-.417-.819,1.019,1.019,0,1,1,2.038,0,1.008,1.008,0,0,1-.417.819Zm1.275-5.321H66.547V3.566a2.038,2.038,0,1,1,4.075,0Z" transform="translate(-64)"/>
</svg>
