<svg xmlns="http://www.w3.org/2000/svg" viewBox="0 0 18.835 12.005">
  <defs>
    <style>
      .cls-1 {
        opacity: 0.3;
      }
    </style>
  </defs>
  <g id="view" class="cls-1" transform="translate(0 -92.835)">
    <g id="Group_355" data-name="Group 355" transform="translate(0 92.835)">
      <g id="Group_354" data-name="Group 354" transform="translate(0 0)">
        <path id="Path_16" data-name="Path 16" d="M18.715,98.471c-.168-.23-4.177-5.636-9.3-5.636S.288,98.241.12,98.471a.622.622,0,0,0,0,.733c.168.23,4.177,5.636,9.3,5.636s9.13-5.406,9.3-5.636A.621.621,0,0,0,18.715,98.471Zm-9.3,5.127c-3.772,0-7.039-3.588-8.006-4.761.966-1.174,4.226-4.76,8.006-4.76s7.038,3.587,8.006,4.761C16.457,100.012,13.2,103.6,9.417,103.6Z" transform="translate(0 -92.835)"/>
      </g>
    </g>
    <g id="Group_357" data-name="Group 357" transform="translate(5.692 95.112)">
      <g id="Group_356" data-name="Group 356" transform="translate(0 0)">
        <path id="Path_17" data-name="Path 17" d="M158.448,154.725a3.726,3.726,0,1,0,3.726,3.726A3.73,3.73,0,0,0,158.448,154.725Zm0,6.209a2.484,2.484,0,1,1,2.484-2.484A2.486,2.486,0,0,1,158.448,160.934Z" transform="translate(-154.722 -154.725)"/>
      </g>
    </g>
  </g>
</svg>
