<svg xmlns="http://www.w3.org/2000/svg" viewBox="0 0 12.5 12.5">
  <defs>
    <style>
      .cls-1 {
        fill: #f65454;
      }
    </style>
  </defs>
  <g id="search" transform="translate(0 -0.003)">
    <path id="Path_10" data-name="Path 10" class="cls-1" d="M12.222,10.865,9.646,8.289a5.145,5.145,0,0,0,.932-3,5.2,5.2,0,0,0-.417-2.055A5.179,5.179,0,0,0,7.343.42a5.271,5.271,0,0,0-4.109,0A5.179,5.179,0,0,0,.417,3.237a5.271,5.271,0,0,0,0,4.109,5.18,5.18,0,0,0,2.817,2.817,5.2,5.2,0,0,0,2.055.417,5.145,5.145,0,0,0,3-.932l2.577,2.569a.892.892,0,0,0,.676.285.961.961,0,0,0,.684-1.638Zm-4.556-3.2a3.241,3.241,0,0,1-2.378.988,3.241,3.241,0,0,1-2.377-.988,3.241,3.241,0,0,1-.988-2.377,3.241,3.241,0,0,1,.988-2.377,3.241,3.241,0,0,1,2.377-.988,3.242,3.242,0,0,1,2.378.988,3.241,3.241,0,0,1,.988,2.377A3.241,3.241,0,0,1,7.666,7.669Z" transform="translate(0)"/>
  </g>
</svg>
